<?xml version="1.0" encoding="UTF-8"?>
<svg width="111.46mm" height="182.82mm" version="1.1" viewBox="0 0 111.46 182.82" xmlns="http://www.w3.org/2000/svg">
 <defs>
  <clipPath id="clipPath15719">
   <path d="m14.27 14.114a7.0254 7.0254 0 0 1 7.0254 7.0254 7.0254 7.0254 0 0 1-7.0254 7.0254v-7.0254z" fill="#08a95d" stroke="#000" stroke-linecap="round" stroke-linejoin="round" stroke-width=".2"/>
  </clipPath>
 </defs>
 <g transform="translate(-48.228 -43.787)">
  <g transform="matrix(6.3744 0 0 6.3744 35.604 36.211)">
   <path transform="matrix(-.86834 -.49598 .39967 -.91666 0 0)" d="m-21.141-15.639c0.60962 1.3245-1.3005 2.2951-2.1491 2.7542-1.0943 0.59211-1.5376-1.4257-2.1491-2.7542-0.59565-1.2941 1.143-2.2099 2.1491-2.7542 1.0943-0.59211 1.5376 1.4257 2.1491 2.7542z" fill="#49c961" stroke="#000" stroke-linecap="round" stroke-linejoin="round" stroke-width=".20058"/>
   <ellipse transform="scale(-1,1)" cx="-11.619" cy="18.764" rx="5.3905" ry="6.6764" fill="#ffe981" stroke="#000" stroke-linecap="round" stroke-linejoin="round" stroke-width=".20809"/>
   <g fill="#d7a34f">
    <path d="m11.563 12.186a5.3905 6.6764 0 0 1 3.7264 1.8573 5.3905 6.6764 0 0 1-4.4359 2.8908 5.3905 6.6764 0 0 1-3.7285-1.8598 5.3905 6.6764 0 0 1 4.438-2.8882z"/>
    <path d="m10.438 14.95a4.7805 3.9394 49.763 0 1 3.0985-0.2541 4.7805 3.9394 49.763 0 1-1.6977 3.3497 4.7805 3.9394 49.763 0 1-3.1009 0.25331 4.7805 3.9394 49.763 0 1 1.7001-3.3489z"/>
    <path d="m10.246 13.252c0.40549-0.84867-2.3344-0.72693-2.9492 0-1.4 1.6553 1.4396 4.0901 1.4622 6.2113 0.02484 2.3327-3.0211 5.0544-1.4622 6.8599 0.62253 0.72102 2.5394 0.84681 2.9492 0-1.0302-3.8 1.1722-3.9629 1.184-6.3153 0.01254-2.504-2.4345-4.1388-1.184-6.756z"/>
   </g>
   <path d="m16.97 19.19c-1.1688 1.0137-3.6596 1.5628-7.4073-0.26613" fill="none" stroke="#000" stroke-linecap="round" stroke-linejoin="round" stroke-width=".2"/>
   <path d="m16.59 16.135c-1.1688 1.0137-3.6596 1.5628-7.4073-0.26613" fill="none" stroke="#000" stroke-linecap="square" stroke-linejoin="round" stroke-width=".2"/>
   <g transform="matrix(-1 0 0 1 23.376 -1.4655)" clip-path="url(#clipPath15719)" fill="#08a95d" stroke="#000" stroke-linecap="round" stroke-linejoin="round" stroke-width=".1456">
    <path transform="matrix(1.3723 -.060456 .060456 1.3723 5.0521 -3.6019)" d="m10.357 19.45-2.2583 1.2058-2.1734-1.3528 0.084885-2.5586 2.2583-1.2058 2.1734 1.3528z"/>
    <path transform="matrix(1.3723 -.060456 .060456 1.3723 11.176 -3.651)" d="m10.357 19.45-2.2583 1.2058-2.1734-1.3528 0.084885-2.5586 2.2583-1.2058 2.1734 1.3528z"/>
    <path transform="matrix(1.3723 -.060456 .060456 1.3723 8.1806 1.6666)" d="m10.357 19.45-2.2583 1.2058-2.1734-1.3528 0.084885-2.5586 2.2583-1.2058 2.1734 1.3528z"/>
    <path transform="matrix(1.3723 -.060456 .060456 1.3723 2.0093 1.646)" d="m10.357 19.45-2.2583 1.2058-2.1734-1.3528 0.084885-2.5586 2.2583-1.2058 2.1734 1.3528z"/>
    <path transform="matrix(1.3723 -.060456 .060456 1.3723 8.0592 -8.8428)" d="m10.357 19.45-2.2583 1.2058-2.1734-1.3528 0.084885-2.5586 2.2583-1.2058 2.1734 1.3528z"/>
    <path transform="matrix(1.3723 -.060456 .060456 1.3723 1.9309 -8.8451)" d="m10.357 19.45-2.2583 1.2058-2.1734-1.3528 0.084885-2.5586 2.2583-1.2058 2.1734 1.3528z"/>
   </g>
   <g stroke="#000">
    <g stroke-linecap="round" stroke-linejoin="round">
     <path transform="scale(-1,1)" d="m-9.1058 12.648a7.0254 7.0254 0 0 1 7.0254 7.0254 7.0254 7.0254 0 0 1-7.0254 7.0254v-7.0254z" fill="none" stroke-width=".2"/>
     <path d="m16.289 21.979c-1.1688 1.0137-3.3661 1.8926-7.1138 0.06372" fill="none" stroke-width=".2"/>
     <path transform="matrix(-.86834 -.49598 .39967 -.91666 0 0)" d="m-18.65-18.444c0.61061 1.3266-0.96216 2.7542-2.1491 2.7542s-1.5376-1.4257-2.1491-2.7542c-0.698-1.5165 1.16-2.2191 2.1491-2.7542 1.1162-0.60397 1.5376 1.4257 2.1491 2.7542z" fill="#49c961" stroke-width=".20058"/>
     <path d="m9.5496 12.952c0.40549-0.89555-2.3344-0.76709-2.9492 0-1.4 1.7467 1.4396 4.316 1.4622 6.5544 0.02484 2.4616-3.0211 5.3337-1.4622 7.2389 0.62253 0.76085 2.5394 0.89359 2.9492 0-1.0302-4.0099 1.1722-4.1818 1.184-6.6641 0.01254-2.6423-2.4345-4.3674-1.184-7.1292z" fill="#fff" stroke-width=".18064"/>
    </g>
    <circle transform="scale(-1,1)" cx="-11.086" cy="8.2886" r="7" fill="#49c961" stroke-width=".2"/>
   </g>
   <path d="m7.3537 2.4984a7 7 0 0 0-2.0133 4.9118 7 7 0 0 0 7.0001 7.0001 7 7 0 0 0 3.7135-1.0723 7 7 0 0 1-4.9837 2.0919 7 7 0 0 1-7.0001-7.0001 7 7 0 0 1 3.2835-5.9314z" fill="#298a3e"/>
   <circle transform="scale(-1,1)" cx="-11.086" cy="8.2886" r="7" fill="none" stroke="#000" stroke-width=".2"/>
   <g>
    <g stroke="#000">
     <circle transform="scale(-1,1)" cx="-16.637" cy="5.6854" r="2.7286" fill="#fff" stroke-width=".2"/>
     <circle transform="scale(-1,1)" cx="-17.327" cy="5.6854" r="1.3672" stroke-width=".10021"/>
     <circle transform="scale(-1,1)" cx="-10.458" cy="5.6854" r="2.7286" fill="#fff" stroke-width=".2"/>
     <circle transform="scale(-1,1)" cx="-11.117" cy="5.6854" r="1.3672" stroke-width=".10021"/>
    </g>
    <path d="m12.432 10.092c0 0.35441-0.1463 1.2556 0.42624 1.7346 0.57253 0.47902 1.2779 0.47902 1.8505 0s0.43178-1.3721 0.43178-1.7346c0-0.36248-0.70682 0.0125-1.3293 0.0125s-1.3792-0.36691-1.3792-0.0125z" fill="#164920" stroke="#164920" stroke-width=".2"/>
    <path d="m12.431 10.129a2.0543 2.0543 0 0 1 1.9043 1.9353c-0.48788 0.22106-1.0243 0.14196-1.4774-0.2372-0.55367-0.46324-0.43526-1.3215-0.42685-1.6981z" fill="#d393df"/>
    <ellipse transform="matrix(-.93605 -.35187 -.35187 .93605 0 0)" cx="-13.816" cy="-2.529" rx="1.1056" ry=".36852" fill="#fff"/>
   </g>
   <path d="m12.042 17.291c-1.074 1.074-2.8169 0.07864-3.1294-1.0664-0.3125-1.145 0.92217-2.0045 1.9978-3.0801 1.2278-1.2278 2.3709 0.30782 3.1294 1.0664 0.85607 0.85607-0.92217 2.0045-1.9978 3.0801z" fill="#49c961" stroke="#000" stroke-linecap="round" stroke-linejoin="round" stroke-width=".2"/>
  </g>
 </g>
</svg>
